<?xml version="1.0" encoding="utf-8"?>
<!-- Generator: Adobe Illustrator 23.0.2, SVG Export Plug-In . SVG Version: 6.00 Build 0)  -->
<svg version="1.1" id="Layer_1" xmlns="http://www.w3.org/2000/svg" xmlns:xlink="http://www.w3.org/1999/xlink" x="0px" y="0px"
	 viewBox="0 0 99.6 23.4" style="enable-background:new 0 0 99.6 23.4;" xml:space="preserve">
<g>
	<path d="M17.6,1.8c1.9,1.2,2.8,2.9,2.9,5.2v0.4h-6.8V7.2c0-0.7-0.2-1.2-0.7-1.6c-0.5-0.4-1.2-0.7-2.2-0.7c-1,0-1.7,0.1-2.2,0.4
		C8,5.6,7.8,6,7.8,6.4c0,0.6,0.3,1,1.1,1.3c0.7,0.3,1.8,0.6,3.4,0.9C14,9,15.5,9.4,16.7,9.8c1.2,0.4,2.2,1.1,3.1,2
		c0.9,0.9,1.3,2.2,1.3,3.7c0,2.7-0.9,4.7-2.7,5.9c-1.8,1.3-4.2,1.9-7.2,1.9c-3.5,0-6.3-0.6-8.2-1.8C1,20.4,0,18.3,0,15.3h6.9
		c0,1.1,0.3,1.9,0.9,2.3c0.6,0.4,1.5,0.6,2.8,0.6c0.9,0,1.7-0.1,2.3-0.3c0.6-0.2,0.9-0.6,0.9-1.2c0-0.5-0.3-1-1-1.2
		c-0.7-0.3-1.8-0.6-3.3-0.9c-1.8-0.4-3.4-0.8-4.6-1.2c-1.2-0.4-2.3-1.1-3.2-2.1c-0.9-1-1.3-2.3-1.3-4c0-2.5,1-4.3,2.9-5.5
		C5.1,0.6,7.6,0,10.5,0C13.4,0,15.8,0.6,17.6,1.8z"/>
	<path d="M39.9,23v-8.6h-8V23h-7.3V0.4H32v8.2h8V0.4h7.3V23H39.9z"/>
	<path d="M72.3,3c2.1,2,3.2,4.9,3.2,8.7c0,3.8-1.1,6.7-3.2,8.7s-5.1,3-9,3s-6.9-1-9-3c-2.1-2-3.2-4.9-3.2-8.7c0-3.8,1.1-6.7,3.2-8.7
		c2.1-2,5.1-3,9-3S70.2,1,72.3,3z M59.7,6.8c-0.8,0.9-1.2,2.2-1.2,3.8v2.1c0,1.6,0.4,2.9,1.2,3.8c0.8,0.9,2,1.4,3.5,1.4
		c1.6,0,2.7-0.5,3.6-1.4c0.8-0.9,1.2-2.2,1.2-3.8v-2.1c0-1.6-0.4-2.9-1.2-3.8c-0.8-0.9-2-1.4-3.6-1.4C61.7,5.4,60.5,5.9,59.7,6.8z"
		/>
	<path d="M88.9,17.6h10.7V23H77.8v-2.3L88.2,5.8h-9.7V0.4h20.8v2.3L88.9,17.6z"/>
</g>
</svg>
